<?xml version="1.0" encoding="utf-8"?>
<!-- Generator: Adobe Illustrator 23.0.1, SVG Export Plug-In . SVG Version: 6.00 Build 0)  -->
<svg version="1.1" id="Layer_1" xmlns="http://www.w3.org/2000/svg" xmlns:xlink="http://www.w3.org/1999/xlink" x="0px" y="0px"
	 viewBox="0 0 512 512" style="enable-background:new 0 0 512 512;" xml:space="preserve">
<style type="text/css">
	.st0{fill:none;}
</style>
<path class="st0" d="M56,56h400v400H56V56z"/>
<path d="M236,316h40v40h-40V316z M236,156h40v120h-40V156z M255.9,56C145.4,56,56,145.5,56,256s89.4,200,199.9,200
	S456,366.5,456,256S366.4,56,255.9,56z M256,416c-88.4,0-160-71.6-160-160S167.6,96,256,96s160,71.6,160,160S344.4,416,256,416z"/>
</svg>
